<svg xmlns="http://www.w3.org/2000/svg" width="1120" height="800" viewBox="0 0 1120 800"><defs><linearGradient id="bg" x2="1" y2="1"><stop stop-color="#d0ece5"/><stop offset="1" stop-color="#f8f6e9"/></linearGradient><filter id="shadow" x="-50%" y="-30%" width="200%" height="180%"><feDropShadow dx="0" dy="25" stdDeviation="20" flood-color="#163b30" flood-opacity=".23"/></filter></defs><rect width="1120" height="800" fill="url(#bg)"/><circle cx="980" cy="130" r="300" fill="#087f75" opacity=".07"/><circle cx="160" cy="800" r="300" fill="#087f75" opacity=".08"/><text x="56" y="114" font-size="15" fill="#087f75" font-weight="700" font-family="Arial, sans-serif">PERPETUAL LABS  /  MOBILE</text><text x="56" y="164" font-size="42" fill="#087f75" font-weight="700" font-family="Arial, sans-serif">PendezaConnect</text><text x="56" y="199" font-size="20" fill="#466358" font-weight="500" font-family="Arial, sans-serif">Care that travels with you.</text><g transform="translate(700 170) rotate(10 145 275)" filter="url(#shadow)"><rect x="0" y="0" width="290" height="560" rx="38" fill="#18342e"/><rect x="7" y="7" width="276" height="546" rx="32" fill="#fff"/><rect x="104" y="17" width="82" height="18" rx="10" fill="#18342e"/><text x="24" y="35" font-size="11" fill="#17382e" font-weight="500" font-family="Arial, sans-serif">9:41</text><text x="22" y="76" font-size="23" fill="#087f75" font-weight="700" font-family="Arial, sans-serif">Here to support</text><text x="22" y="103" font-size="12" fill="#6b786d" font-weight="500" font-family="Arial, sans-serif">People at the heart of every service.</text><rect x="20" y="132" width="250" height="68" rx="16" fill="#eef5ef"/><circle cx="44" cy="165" r="9" fill="#087f75" opacity=".7"/><text x="63" y="160" font-size="15" fill="#087f75" font-weight="700" font-family="Arial, sans-serif">Sponsorship</text><text x="63" y="181" font-size="10" fill="#6b786d" font-weight="500" font-family="Arial, sans-serif">Connect sponsors and families</text><rect x="20" y="215" width="250" height="68" rx="16" fill="#eef5ef"/><circle cx="44" cy="248" r="9" fill="#087f75" opacity=".7"/><text x="63" y="243" font-size="15" fill="#087f75" font-weight="700" font-family="Arial, sans-serif">Loans &amp; savings</text><text x="63" y="264" font-size="10" fill="#6b786d" font-weight="500" font-family="Arial, sans-serif">A clearer view of finances</text><rect x="20" y="298" width="250" height="68" rx="16" fill="#eef5ef"/><circle cx="44" cy="331" r="9" fill="#087f75" opacity=".7"/><text x="63" y="326" font-size="15" fill="#087f75" font-weight="700" font-family="Arial, sans-serif">Field photo capture</text><text x="63" y="347" font-size="10" fill="#6b786d" font-weight="500" font-family="Arial, sans-serif">Keep child profiles up to date</text><rect x="20" y="381" width="250" height="68" rx="16" fill="#eef5ef"/><circle cx="44" cy="414" r="9" fill="#087f75" opacity=".7"/><text x="63" y="409" font-size="15" fill="#087f75" font-weight="700" font-family="Arial, sans-serif">Your account</text><text x="63" y="430" font-size="10" fill="#6b786d" font-weight="500" font-family="Arial, sans-serif">Manage your profile</text><rect x="20" y="475" width="250" height="40" rx="16" fill="#087f75"/><text x="70" y="501" font-size="14" fill="#fff" font-weight="700" font-family="Arial, sans-serif">Connected in care</text><rect x="104" y="537" width="82" height="4" rx="2" fill="#18342e"/></g><g transform="translate(392 206) rotate(-9 145 275)" filter="url(#shadow)"><rect x="0" y="0" width="290" height="560" rx="38" fill="#18342e"/><rect x="7" y="7" width="276" height="546" rx="32" fill="#fff"/><rect x="104" y="17" width="82" height="18" rx="10" fill="#18342e"/><text x="24" y="35" font-size="11" fill="#17382e" font-weight="500" font-family="Arial, sans-serif">9:41</text><text x="22" y="76" font-size="23" fill="#087f75" font-weight="700" font-family="Arial, sans-serif">Pendeza Connect</text><text x="22" y="102" font-size="12" fill="#6b786d" font-weight="500" font-family="Arial, sans-serif">Your community, connected.</text><rect x="20" y="123" width="250" height="104" rx="16" fill="#087f75"/><text x="36" y="154" font-size="24" fill="#fff" font-weight="700" font-family="Arial, sans-serif">Welcome back</text><text x="36" y="184" font-size="16" fill="#d8f3ea" font-weight="500" font-family="Arial, sans-serif">Small actions.</text><text x="36" y="206" font-size="16" fill="#d8f3ea" font-weight="500" font-family="Arial, sans-serif">Lasting possibilities.</text><text x="22" y="262" font-size="18" fill="#087f75" font-weight="700" font-family="Arial, sans-serif">Your workspace</text><rect x="20" y="281" width="120" height="82" rx="16" fill="#edf5f0"/><text x="34" y="312" font-size="23" fill="#087f75" font-weight="700" font-family="Arial, sans-serif">01</text><text x="34" y="342" font-size="12" fill="#087f75" font-weight="600" font-family="Arial, sans-serif">Sponsorship</text><rect x="150" y="281" width="120" height="82" rx="16" fill="#edf5f0"/><text x="164" y="312" font-size="23" fill="#087f75" font-weight="700" font-family="Arial, sans-serif">02</text><text x="164" y="342" font-size="12" fill="#087f75" font-weight="600" font-family="Arial, sans-serif">Savings</text><rect x="20" y="377" width="120" height="82" rx="16" fill="#edf5f0"/><text x="34" y="408" font-size="23" fill="#087f75" font-weight="700" font-family="Arial, sans-serif">03</text><text x="34" y="438" font-size="12" fill="#087f75" font-weight="600" font-family="Arial, sans-serif">Loans</text><rect x="150" y="377" width="120" height="82" rx="16" fill="#edf5f0"/><text x="164" y="408" font-size="23" fill="#087f75" font-weight="700" font-family="Arial, sans-serif">04</text><text x="164" y="438" font-size="12" fill="#087f75" font-weight="600" font-family="Arial, sans-serif">Payments</text><text x="40" y="513" font-size="12" fill="#087f75" font-weight="700" font-family="Arial, sans-serif">Home       Services       Account</text><rect x="104" y="537" width="82" height="4" rx="2" fill="#18342e"/></g><text x="56" y="687" font-size="12" fill="#087f75" font-weight="700" font-family="Arial, sans-serif">MADE FOR</text><text x="56" y="722" font-size="27" fill="#087f75" font-weight="700" font-family="Arial, sans-serif">Everyday life.</text><text x="56" y="766" font-size="12" fill="#526b60" font-weight="500" font-family="Arial, sans-serif">Interface illustration</text></svg>